 <svg version="1.0" xmlns="http://www.w3.org/2000/svg" width="700.000000pt" height="577.000000pt" viewBox="0 0 700.000000 577.000000" preserveAspectRatio="xMidYMid meet">
<metadata>
Created by potrace 1.12, written by Peter Selinger 2001-2015
</metadata>
<g transform="translate(0.000000,577.000000) scale(0.100000,-0.100000)" fill="#ea4c41" stroke="none">
<path d="M3075 4552 c-159 -10 -336 -61 -448 -129 -89 -54 -219 -183 -287
-285 -75 -111 -116 -198 -174 -368 -70 -201 -156 -371 -220 -436 -45 -45 -65
-56 -137 -79 -47 -15 -118 -28 -163 -31 -44 -3 -83 -7 -88 -10 -42 -26 77 -58
217 -58 100 -1 114 1 160 26 105 55 186 168 340 473 113 223 150 283 240 400
122 156 229 244 409 335 79 40 94 44 160 45 67 0 80 -4 162 -45 103 -53 163
-107 233 -215 86 -131 93 -159 101 -400 6 -180 10 -219 29 -274 42 -120 116
-208 210 -247 53 -22 198 -17 448 17 134 18 247 29 275 25 56 -6 162 -51 223
-94 55 -39 115 -156 151 -297 21 -84 25 -115 20 -190 -12 -211 -105 -360 -399
-637 -210 -198 -270 -260 -324 -333 -145 -194 -173 -375 -90 -570 l22 -50 6
30 c4 17 7 75 8 131 1 112 18 183 61 259 57 101 193 237 405 408 250 202 365
348 425 542 34 108 38 266 11 379 -54 225 -216 467 -362 539 -61 31 -107 34
-152 10 -25 -14 -58 -18 -154 -18 -82 0 -126 4 -134 12 -14 14 -6 26 158 222
63 75 157 200 209 278 100 148 142 191 200 200 48 8 79 -11 104 -64 16 -35 25
-44 43 -41 31 4 57 62 57 123 -1 99 -60 174 -170 217 -79 30 -271 37 -373 13
-71 -17 -73 -16 -107 3 -19 11 -62 25 -96 31 -225 41 -429 -150 -385 -360 11
-56 10 -63 -9 -94 -34 -56 -178 -185 -206 -185 -22 0 -24 4 -24 43 0 23 6 76
14 117 10 51 12 89 6 120 -27 144 -140 316 -265 405 -117 84 -218 115 -340
107z m1256 -227 c19 -10 46 -29 61 -42 l27 -25 95 31 c115 37 190 40 278 10
112 -37 188 -111 188 -181 0 -21 -2 -20 -20 10 -31 51 -76 74 -136 69 -29 -2
-63 -12 -80 -23 -31 -22 -214 -94 -238 -94 -7 0 -51 25 -97 55 -46 30 -90 55
-99 55 -47 0 -110 -73 -110 -127 0 -37 21 -91 45 -117 46 -50 104 -34 265 74
101 68 120 76 120 52 0 -18 -42 -71 -164 -209 -43 -48 -102 -121 -130 -161
-30 -43 -60 -75 -73 -79 -54 -13 -236 141 -263 222 -11 33 -10 39 15 74 34 50
27 87 -20 107 -36 15 -50 47 -39 91 23 94 109 191 193 218 55 18 136 13 182
-10z m18 -221 c12 -15 21 -37 21 -49 0 -29 -36 -75 -59 -75 -24 0 -49 30 -57
66 -4 21 0 37 16 57 27 34 53 34 79 1z m-557 -440 c17 -9 80 -63 140 -120 60
-57 115 -104 122 -104 27 0 59 -35 52 -57 -9 -28 -52 -44 -119 -44 -97 0 -166
47 -251 174 -65 97 -77 134 -51 154 25 18 69 17 107 -3z"></path>
<path d="M2937 4226 c-100 -41 -239 -168 -362 -331 -25 -33 -79 -129 -121
-214 -110 -228 -183 -334 -328 -477 -160 -159 -202 -180 -416 -212 l-55 -8 70
-24 c46 -15 91 -23 131 -22 106 1 301 80 393 158 56 49 152 196 262 404 121
229 206 357 305 456 103 104 189 149 279 149 132 -1 200 -75 261 -282 20 -70
27 -122 34 -253 5 -103 15 -186 25 -220 26 -86 83 -185 139 -244 94 -98 191
-130 396 -130 123 -1 126 0 195 34 65 32 77 34 160 34 133 -1 191 -21 269 -94
83 -78 90 -96 83 -223 -11 -231 -92 -341 -441 -601 -272 -204 -298 -232 -358
-403 -28 -78 -33 -103 -36 -218 -2 -71 -1 -127 3 -123 4 4 27 52 51 107 108
252 216 384 495 608 299 240 395 383 406 603 9 163 -33 286 -128 375 -106 99
-212 122 -379 82 -291 -70 -470 -66 -578 13 -59 42 -104 109 -153 225 l-42
100 -7 185 c-6 172 -8 190 -34 253 -58 140 -148 246 -249 293 -73 33 -188 33
-270 0z"></path>
<path d="M2997 3916 c-149 -62 -235 -159 -380 -433 -91 -172 -155 -268 -242
-362 -99 -109 -65 -118 108 -29 111 58 134 86 327 391 162 256 260 337 363
298 13 -5 46 -28 73 -52 39 -33 50 -39 52 -26 10 51 -64 156 -147 209 -54 34
-79 35 -154 4z"></path>
<path d="M3135 3641 c-56 -26 -120 -97 -205 -226 -45 -68 -105 -142 -157 -193
-46 -45 -81 -87 -78 -92 30 -49 238 79 382 234 68 73 115 99 162 90 79 -16
115 28 82 99 -40 91 -111 124 -186 88z"></path>
<path d="M3283 3243 c-60 -146 151 -392 381 -444 30 -6 65 -9 79 -6 24 7 148
97 133 97 -5 0 -65 11 -134 25 -208 43 -286 99 -376 275 -26 49 -51 90 -57 90
-6 0 -17 -17 -26 -37z"></path>
<path d="M3153 3054 c-12 -33 7 -128 40 -199 66 -139 180 -215 333 -223 73 -4
84 -2 103 17 12 12 19 26 16 32 -4 5 -50 31 -103 58 -110 55 -172 106 -239
195 -92 122 -136 157 -150 120z"></path>
<path d="M2980 2989 c-37 -15 -108 -62 -266 -175 -313 -224 -582 -370 -709
-384 l-60 -6 45 -21 c70 -32 136 -37 233 -19 197 37 349 106 592 267 206 137
245 182 245 290 0 55 -25 70 -80 48z"></path>
<path d="M4287 2907 c30 -33 49 -75 62 -138 23 -113 -17 -185 -214 -389 -120
-124 -157 -169 -199 -243 -53 -90 -64 -170 -22 -154 8 3 36 33 61 65 44 57 86
94 247 221 134 105 218 227 267 385 11 37 21 87 21 111 0 84 -74 147 -189 159
l-54 5 20 -22z"></path>
<path d="M4086 2903 c-3 -10 -12 -51 -21 -92 -20 -96 -44 -148 -105 -230 -56
-77 -70 -108 -70 -159 0 -36 40 -176 48 -168 2 3 8 24 13 48 11 49 56 123 110
183 110 122 138 185 141 319 1 71 -1 81 -22 98 -29 24 -87 24 -94 1z"></path>
<path d="M3052 2730 c-18 -11 -104 -75 -190 -143 -86 -67 -251 -191 -367 -274
-277 -201 -348 -270 -282 -274 50 -3 113 4 149 17 104 36 407 263 591 443 120
117 169 183 165 221 -4 32 -25 35 -66 10z"></path>
<path d="M3086 2563 c-218 -249 -569 -718 -602 -807 -7 -18 -3 -19 50 -13 34
3 74 16 100 31 84 49 263 262 504 598 59 83 101 159 102 185 0 17 -59 83 -74
83 -7 0 -43 -35 -80 -77z"></path>
<path d="M3605 2523 c4 -10 10 -52 12 -93 4 -58 0 -93 -16 -151 -11 -41 -21
-78 -21 -82 0 -34 77 46 90 93 12 46 35 69 52 52 9 -9 7 -28 -9 -77 -12 -36
-19 -65 -16 -65 14 0 74 44 83 60 30 57 -5 136 -103 228 -57 53 -85 67 -72 35z"></path>
<path d="M3287 2488 c-138 -172 -339 -553 -422 -798 -64 -191 -59 -223 25
-165 66 46 156 218 345 660 122 284 135 323 114 336 -22 14 -25 12 -62 -33z"></path>
<path d="M3424 2463 c-41 -41 -130 -275 -178 -468 -41 -163 -57 -273 -57 -401
-1 -136 16 -215 55 -261 l23 -27 12 22 c6 12 32 142 56 290 50 301 83 474 125
642 47 191 47 201 4 214 -15 4 -28 1 -40 -11z"></path>
</g>
</svg>