 <svg version="1.0" xmlns="http://www.w3.org/2000/svg" width="500.000000pt" height="500.000000pt" viewBox="0 0 700.000000 700.000000" preserveAspectRatio="xMidYMid meet">
<metadata>
Created by potrace 1.12, written by Peter Selinger 2001-2015
</metadata>
<g transform="translate(0.000000,700.000000) scale(0.100000,-0.100000)" fill="#ea4c41" stroke="none">
<path d="M3010 6383 c-14 -2 -74 -10 -133 -19 -486 -68 -870 -321 -1159 -764
-119 -181 -236 -434 -299 -640 -80 -267 -234 -598 -350 -752 -84 -113 -182
-170 -384 -223 -73 -20 -132 -28 -218 -31 -115 -3 -166 -15 -174 -41 -10 -30
147 -73 342 -93 223 -24 375 28 526 179 147 148 231 284 460 742 238 477 388
705 623 948 164 169 270 246 507 370 294 153 441 158 671 20 40 -24 94 -54
120 -67 103 -52 292 -287 382 -477 78 -163 98 -298 94 -640 -2 -184 0 -234 16
-305 51 -235 153 -410 298 -513 133 -94 228 -114 448 -97 150 12 336 33 480
55 52 8 149 22 215 32 164 24 343 24 415 -1 101 -34 288 -135 334 -181 80 -77
140 -189 201 -370 162 -482 93 -826 -252 -1255 -95 -118 -292 -320 -458 -468
-467 -418 -661 -661 -748 -939 -73 -228 -49 -485 65 -706 l21 -42 9 30 c5 17
12 131 18 255 10 253 19 299 82 429 108 219 339 455 848 867 101 82 226 191
277 242 421 423 573 934 431 1452 -44 162 -138 365 -241 520 -229 344 -499
515 -675 426 -87 -44 -263 -63 -423 -46 -112 11 -129 16 -129 39 0 28 35 75
218 293 300 359 398 487 507 668 145 241 289 350 408 311 44 -15 78 -52 116
-128 23 -47 38 -64 58 -69 37 -10 54 4 88 72 27 54 30 68 30 159 0 89 -4 107
-29 162 -56 122 -192 217 -376 263 -170 43 -437 38 -618 -11 -93 -25 -114 -24
-157 5 -20 14 -66 35 -103 48 -57 19 -86 23 -192 22 -109 0 -135 -4 -198 -26
-103 -37 -176 -83 -252 -158 -138 -138 -192 -331 -143 -515 16 -61 16 -65 -3
-107 -23 -53 -234 -272 -320 -334 -102 -73 -131 -55 -121 75 4 42 16 123 28
181 15 75 20 125 16 175 -16 216 -207 549 -417 729 -133 115 -317 216 -438
242 -62 12 -278 17 -342 7z m2309 -384 c61 -14 112 -42 171 -94 34 -31 60 -45
79 -45 15 0 88 21 162 47 121 42 145 47 247 51 67 3 138 0 175 -8 137 -26 288
-107 361 -192 45 -53 95 -198 67 -198 -5 0 -14 14 -21 31 -35 84 -149 159
-241 159 -47 0 -134 -31 -179 -65 -18 -13 -54 -32 -79 -41 -25 -10 -104 -39
-176 -67 -161 -61 -194 -61 -282 1 -180 126 -196 135 -242 140 -102 9 -203
-108 -202 -235 0 -111 59 -219 135 -248 85 -33 162 -2 400 159 83 57 165 110
183 119 39 21 73 22 73 3 0 -26 -78 -130 -192 -257 -234 -259 -292 -330 -381
-465 -88 -133 -131 -139 -287 -36 -109 72 -235 199 -277 279 -40 74 -45 139
-12 169 48 43 63 106 39 165 -10 24 -27 38 -66 55 -46 20 -55 28 -65 65 -28
92 40 260 148 368 132 132 288 179 462 140z m97 -414 c58 -62 58 -153 -1 -212
-40 -40 -72 -42 -114 -7 -71 60 -61 196 18 239 41 22 61 18 97 -20z m-1031
-814 c57 -26 143 -97 270 -226 135 -137 190 -182 251 -203 26 -10 56 -30 68
-45 19 -26 19 -30 6 -55 -36 -63 -124 -90 -257 -79 -96 7 -195 60 -287 151
-108 109 -256 340 -256 402 0 61 121 94 205 55z"></path>
<path d="M2925 5821 c-155 -44 -272 -120 -444 -286 -222 -215 -412 -467 -487
-649 -48 -114 -180 -370 -249 -481 -142 -230 -314 -435 -499 -594 -216 -186
-309 -230 -570 -267 -94 -13 -177 -25 -185 -26 -25 -5 193 -77 267 -89 143
-21 339 25 571 136 290 140 400 275 722 887 149 284 188 353 276 486 200 304
417 513 620 598 60 25 80 28 178 29 109 0 112 -1 188 -38 92 -45 137 -96 197
-221 107 -224 160 -469 160 -742 0 -196 15 -298 61 -430 63 -178 145 -310 268
-427 167 -159 340 -212 696 -211 206 0 294 16 361 64 78 55 226 78 394 60 145
-15 222 -40 305 -98 80 -57 194 -171 219 -221 27 -51 35 -138 25 -258 -34
-414 -194 -643 -717 -1031 -397 -294 -462 -345 -530 -413 -41 -41 -92 -104
-114 -141 -87 -147 -174 -410 -185 -563 -6 -82 5 -340 14 -331 3 2 38 82 79
177 118 274 201 419 348 604 140 176 283 310 626 583 264 211 448 398 534 543
333 559 153 1233 -366 1377 -92 25 -278 22 -378 -7 -328 -94 -694 -128 -878
-82 -213 53 -362 196 -458 438 -20 48 -46 111 -59 140 -54 116 -60 161 -58
398 3 254 -6 343 -49 463 -116 330 -328 563 -568 627 -75 20 -239 18 -315 -4z"></path>
<path d="M2995 5241 c-126 -44 -210 -92 -305 -173 -138 -120 -295 -348 -445
-648 -130 -260 -279 -484 -420 -630 -108 -113 -135 -146 -135 -171 0 -38 99
-13 269 67 216 102 309 200 536 569 344 561 506 735 680 735 78 0 134 -28 234
-115 89 -78 106 -82 98 -24 -17 131 -163 309 -322 394 -60 31 -90 31 -190 -4z"></path>
<path d="M3217 4730 c-110 -43 -205 -142 -362 -380 -147 -221 -253 -352 -366
-449 -98 -85 -116 -108 -100 -124 26 -26 103 -12 201 35 148 71 257 155 453
351 98 97 193 185 210 195 26 13 53 17 135 15 118 -3 152 8 172 57 27 65 -10
161 -95 246 -75 75 -151 92 -248 54z"></path>
<path d="M3477 4003 c-32 -71 -31 -186 5 -271 101 -243 337 -447 628 -542 110
-36 185 -39 244 -10 38 18 227 160 213 160 -35 0 -410 77 -467 96 -138 46
-241 114 -327 215 -53 62 -76 99 -159 258 -83 161 -100 173 -137 94z"></path>
<path d="M3250 3665 c-70 -84 19 -389 165 -568 108 -133 341 -238 532 -238
104 0 160 19 184 62 18 35 -9 58 -157 129 -80 39 -173 89 -207 112 -84 57
-187 162 -282 288 -137 182 -208 247 -235 215z"></path>
<path d="M2885 3506 c-86 -41 -204 -118 -406 -266 -461 -337 -977 -637 -1239
-721 -84 -27 -103 -30 -165 -24 -63 7 -68 6 -56 -8 17 -22 151 -72 225 -86 93
-17 160 -13 318 19 259 52 471 133 725 276 165 93 525 332 618 411 111 94 156
189 158 335 1 105 -53 125 -178 64z"></path>
<path d="M5306 3376 c78 -67 141 -251 131 -383 -11 -147 -95 -269 -397 -578
-102 -104 -204 -212 -226 -240 -148 -183 -260 -413 -234 -480 20 -51 81 -17
149 84 57 83 216 232 380 355 263 199 377 327 486 551 98 202 120 277 120 410
0 86 -4 117 -18 142 -29 53 -85 100 -152 127 -56 22 -186 46 -254 46 -23 0
-22 -2 15 -34z"></path>
<path d="M4946 3369 c-8 -19 -19 -59 -25 -89 -32 -166 -44 -212 -74 -285 -36
-86 -75 -151 -157 -255 -83 -107 -105 -160 -105 -260 0 -76 5 -98 45 -209 l45
-123 17 87 c26 128 98 246 262 428 162 180 205 296 206 552 0 134 -29 172
-138 182 l-62 6 -14 -34z"></path>
<path d="M3098 3076 c-45 -16 -124 -72 -298 -212 -151 -121 -559 -427 -780
-584 -433 -310 -574 -432 -554 -483 9 -25 69 -31 177 -20 83 10 111 18 190 56
355 173 1113 802 1295 1075 39 58 55 140 32 167 -15 18 -15 18 -62 1z"></path>
<path d="M3169 2803 c-282 -291 -974 -1195 -1139 -1486 -45 -80 -38 -91 53
-84 223 17 389 170 843 777 341 457 446 613 460 686 3 18 -1 46 -9 66 -16 37
-96 128 -113 128 -6 0 -49 -39 -95 -87z"></path>
<path d="M4060 2673 c1 -16 7 -46 15 -68 26 -73 20 -226 -16 -362 -44 -169
-47 -181 -42 -187 16 -16 117 72 142 123 10 20 24 58 31 84 15 57 52 92 81 76
26 -14 24 -55 -7 -136 -35 -92 -43 -120 -36 -127 7 -8 90 40 124 72 39 36 62
102 54 154 -15 92 -127 243 -263 354 -64 51 -83 55 -83 17z"></path>
<path d="M3528 2660 c-39 -24 -164 -201 -293 -415 -249 -414 -451 -843 -563
-1196 -50 -156 -61 -229 -38 -252 20 -19 34 -15 101 29 70 45 95 75 160 184
110 185 250 482 475 1005 188 438 232 551 234 605 1 43 0 45 -29 47 -16 2 -37
-2 -47 -7z"></path>
<path d="M3738 2569 c-86 -49 -310 -688 -391 -1114 -42 -215 -51 -311 -52
-510 0 -256 28 -375 111 -474 25 -30 28 -31 45 -15 10 9 26 53 38 103 18 79
31 156 92 536 64 399 159 878 229 1150 51 197 61 287 35 315 -20 22 -77 27
-107 9z"></path>
</g>
</svg>