 <svg version="1.0" xmlns="http://www.w3.org/2000/svg" width="111.000000pt" height="111.000000pt" viewBox="0 0 700.000000 700.000000" preserveAspectRatio="xMidYMid meet">
<metadata>
Created by potrace 1.12, written by Peter Selinger 2001-2015
</metadata>
<g transform="translate(0.000000,700.000000) scale(0.100000,-0.100000)" fill="#000000" fill-opacity="1" stroke="none">
<path d="M3205 6713 c-1159 -104 -2162 -812 -2641 -1863 -127 -279 -204 -543
-256 -875 -29 -188 -36 -567 -14 -775 61 -579 279 -1133 622 -1587 696 -920
1792 -1389 2934 -1257 799 92 1555 502 2071 1121 692 830 917 1924 612 2968
-83 284 -222 580 -399 848 -526 792 -1384 1314 -2326 1412 -133 14 -487 18
-603 8z m701 -301 c633 -101 1180 -378 1624 -822 412 -411 687 -923 800 -1490
88 -442 75 -874 -40 -1317 -171 -657 -573 -1236 -1140 -1640 -716 -510 -1666
-664 -2515 -408 -998 301 -1762 1111 -2001 2122 -85 363 -98 814 -33 1177 109
608 390 1140 831 1572 427 420 932 682 1518 789 207 38 284 44 565 40 204 -2
288 -7 391 -23z"></path>
<path d="M2834 5756 l-44 -43 0 -945 c0 -520 -2 -947 -5 -950 -3 -3 -164 49
-358 114 -345 117 -353 119 -392 106 -77 -26 -107 -112 -62 -179 18 -28 37
-39 112 -65 50 -16 228 -76 398 -133 l307 -103 0 -994 c0 -837 2 -1000 14
-1029 25 -59 104 -82 166 -50 63 33 60 -19 60 1030 0 525 4 955 8 955 12 0
631 -209 652 -220 16 -9 17 -76 17 -1038 0 -780 3 -1034 12 -1051 17 -30 70
-61 106 -61 36 0 89 31 107 62 10 18 12 226 13 1005 0 540 3 985 7 988 4 4
197 -57 429 -135 401 -136 423 -142 460 -131 71 21 106 98 74 165 -10 20 -27
42 -39 48 -11 6 -223 80 -471 163 -409 138 -450 154 -455 176 -4 18 -5 1405
-1 1516 1 24 12 23 96 -10 22 -9 224 -82 449 -162 451 -162 453 -162 511 -105
25 26 30 38 30 80 0 40 -5 54 -29 79 -16 17 -39 33 -50 37 -12 3 -43 14 -71
24 -27 10 -90 33 -140 50 -49 17 -112 40 -140 50 -27 10 -90 33 -140 50 -49
17 -112 40 -140 50 -323 121 -417 150 -481 150 -62 0 -68 -2 -100 -34 l-34
-34 -1 -743 c-1 -961 -1 -923 -19 -927 -8 -1 -159 47 -335 106 l-320 109 -3
992 c-2 1097 3 1018 -67 1061 -51 32 -81 26 -131 -24z"></path>
</g>
</svg>