 <svg version="1.0" xmlns="http://www.w3.org/2000/svg" width="700.000000pt" height="700.000000pt" viewBox="0 0 700.000000 700.000000" preserveAspectRatio="xMidYMid meet">
<metadata>
Created by potrace 1.12, written by Peter Selinger 2001-2015
</metadata>
<g transform="translate(0.000000,700.000000) scale(0.100000,-0.100000)" fill="#dedede" stroke="none">
<path d="M2356 6623 c-58 -15 -145 -95 -170 -157 -22 -52 -20 -151 3 -202 25
-55 73 -108 124 -135 38 -21 58 -23 215 -27 l172 -4 0 -832 0 -832 -44 -69
c-25 -39 -64 -101 -89 -140 -24 -38 -73 -115 -108 -169 -84 -132 -241 -378
-279 -441 -17 -27 -59 -94 -93 -147 -34 -54 -143 -225 -241 -380 -99 -156
-203 -319 -231 -363 -28 -44 -80 -125 -114 -180 -75 -118 -189 -299 -441 -695
-102 -160 -232 -366 -290 -458 -58 -92 -125 -196 -149 -232 -285 -434 -188
-800 242 -913 l82 -22 2555 0 2555 0 82 22 c394 104 510 419 300 813 -21 41
-45 82 -52 90 -6 8 -79 121 -160 250 -82 129 -172 271 -200 315 -48 76 -143
225 -370 584 -116 184 -190 300 -260 410 -27 43 -102 160 -165 259 -63 100
-132 208 -152 239 -20 32 -51 81 -68 108 -17 28 -49 77 -70 110 -22 33 -49 76
-60 95 -11 19 -37 61 -58 93 -20 31 -77 121 -126 200 -50 78 -117 185 -151
237 -34 52 -83 129 -109 170 -26 41 -67 106 -92 145 l-44 69 0 832 0 832 173
4 c197 5 229 15 292 92 48 59 65 105 65 175 0 105 -60 195 -160 240 -44 20
-59 21 -1170 20 -619 -1 -1134 -4 -1144 -6z m2283 -184 c42 -42 43 -95 2 -141
l-29 -33 -185 -5 c-206 -6 -220 -10 -262 -81 -20 -33 -20 -55 -23 -889 -2
-629 0 -866 9 -895 11 -38 44 -95 158 -275 26 -41 86 -134 132 -207 46 -73
122 -192 168 -265 88 -140 95 -151 186 -292 31 -49 110 -173 174 -275 252
-399 507 -801 581 -916 42 -66 89 -140 104 -165 15 -25 44 -71 64 -102 20 -32
70 -111 111 -175 41 -65 99 -156 130 -203 156 -242 329 -524 362 -590 136
-270 37 -480 -251 -532 -109 -19 -5027 -19 -5140 0 -194 33 -310 147 -310 301
1 138 35 213 259 566 84 132 164 258 178 280 14 22 90 141 168 265 199 312
303 476 340 535 116 182 212 335 290 459 50 78 113 178 141 222 28 43 75 117
104 164 47 74 87 137 185 290 12 19 60 95 106 168 46 73 122 192 168 265 46
73 106 166 132 207 114 180 147 237 158 275 9 29 11 266 9 895 -3 834 -3 856
-23 889 -42 71 -56 75 -262 81 l-185 5 -29 33 c-41 46 -40 99 2 141 l31 31
1108 0 1108 0 31 -31z"></path>
<path d="M3187 6253 c-41 -7 -92 -63 -106 -116 -8 -33 -11 -298 -11 -929 l0
-883 -43 -66 c-23 -36 -46 -73 -52 -82 -5 -9 -32 -52 -59 -94 -27 -43 -67
-107 -89 -143 -22 -36 -55 -87 -72 -115 -17 -27 -63 -101 -101 -163 -38 -62
-86 -138 -106 -170 -20 -31 -51 -79 -67 -107 -17 -27 -37 -59 -43 -70 -7 -11
-57 -92 -112 -180 -54 -88 -107 -172 -117 -187 -11 -15 -19 -30 -19 -33 0 -4
-15 -27 -32 -53 -18 -26 -38 -56 -44 -67 -6 -11 -30 -49 -52 -85 -23 -36 -56
-89 -74 -119 -66 -107 -95 -154 -232 -373 -49 -79 -129 -208 -179 -288 -49
-80 -104 -167 -122 -195 -17 -27 -58 -93 -90 -145 -32 -52 -68 -111 -80 -130
-13 -19 -64 -102 -115 -185 -111 -180 -156 -251 -181 -287 -11 -15 -19 -29
-19 -32 0 -3 -19 -35 -42 -72 -36 -58 -42 -75 -43 -123 0 -79 10 -106 52 -138
l36 -28 2527 0 2527 0 36 28 c42 32 52 59 52 138 -1 48 -7 65 -43 123 -23 37
-42 69 -42 72 0 3 -8 17 -19 32 -25 36 -70 107 -181 287 -51 83 -102 166 -115
185 -12 19 -48 78 -80 130 -32 52 -73 118 -90 145 -18 28 -63 100 -100 160
-37 61 -78 126 -90 145 -28 43 -240 384 -294 471 -9 15 -32 52 -51 83 -19 32
-44 72 -55 90 -22 37 -57 93 -237 379 -66 104 -129 205 -141 225 -48 82 -90
150 -125 204 -20 32 -68 108 -106 170 -38 62 -84 136 -101 163 -17 28 -50 79
-72 115 -35 56 -101 162 -153 244 -8 13 -31 50 -50 82 l-35 59 -5 905 c-5 859
-6 907 -24 943 -10 20 -33 47 -50 60 -30 22 -38 22 -336 23 -168 1 -318 0
-333 -3z m581 -1066 l2 -908 43 -67 c41 -63 100 -157 192 -307 22 -36 69 -111
104 -168 35 -56 104 -167 154 -247 49 -80 104 -167 121 -195 18 -27 77 -122
131 -210 54 -88 108 -176 120 -195 12 -19 39 -62 59 -95 21 -33 58 -91 82
-130 24 -38 59 -94 77 -123 17 -29 47 -75 64 -103 18 -28 69 -110 114 -182 44
-73 116 -188 159 -257 43 -69 127 -204 186 -300 60 -96 140 -225 179 -286 38
-61 82 -131 96 -155 39 -64 147 -238 173 -279 61 -94 136 -218 136 -224 0 -3
-1107 -6 -2460 -6 -1353 0 -2460 3 -2460 6 0 6 59 103 145 239 30 47 71 113
191 308 50 81 231 372 283 454 14 23 45 72 68 110 24 37 58 93 77 123 47 74
83 133 211 340 60 96 123 198 140 225 18 28 81 129 140 225 60 96 147 237 194
312 47 75 109 173 136 218 28 45 86 139 129 208 44 70 101 163 129 207 27 44
60 96 72 115 39 60 147 234 164 263 9 15 37 61 64 102 l47 74 0 904 c0 497 3
907 7 910 4 4 124 6 267 5 l261 -3 3 -908z"></path>
<path d="M2524 2650 c-11 -4 -28 -20 -37 -34 -16 -23 -17 -96 -17 -866 l0
-842 29 -29 c39 -38 97 -40 138 -5 l28 24 5 329 5 328 255 6 c222 5 265 8 333
27 110 31 172 65 243 134 97 93 144 219 144 388 0 171 -49 300 -151 394 -91
84 -183 124 -334 145 -90 13 -610 14 -641 1z m721 -221 c92 -31 162 -98 188
-180 37 -122 14 -294 -50 -369 -80 -94 -182 -119 -483 -120 l-225 -1 -3 351
-2 352 252 -5 c233 -4 259 -6 323 -28z"></path>
<path d="M3910 2647 c-51 -26 -50 -2 -47 -904 l2 -841 24 -26 c20 -21 34 -26
72 -26 40 0 51 4 73 31 14 17 26 41 26 53 0 36 9 36 56 1 79 -61 128 -77 244
-82 94 -5 113 -3 176 19 167 58 273 168 324 335 20 67 21 86 18 360 -4 268 -6
292 -26 343 -50 124 -141 221 -260 277 -141 66 -267 69 -394 10 -40 -19 -84
-46 -97 -60 -13 -15 -28 -24 -32 -21 -5 3 -9 113 -9 245 l0 241 -29 29 c-33
32 -77 38 -121 16z m568 -628 c83 -28 151 -93 180 -172 20 -53 22 -76 22 -307
0 -293 -7 -323 -87 -402 -97 -95 -229 -120 -328 -63 -71 42 -129 105 -170 187
l-35 71 0 207 0 207 35 71 c45 88 104 153 175 192 67 36 121 39 208 9z"></path>
</g>
</svg>